<?xml version="1.0" encoding="UTF-8" standalone="no"?>
<!DOCTYPE svg PUBLIC "-//W3C//DTD SVG 1.1//EN" "http://www.w3.org/Graphics/SVG/1.1/DTD/svg11.dtd">
<svg version="1.1" xmlns="http://www.w3.org/2000/svg" xmlns:xlink="http://www.w3.org/1999/xlink" preserveAspectRatio="xMidYMid meet" viewBox="0 0 640 640" width="24" height="24"><defs><path d="M12.8 10.37C13.87 9.57 22.39 3.2 23.45 2.4C24.05 1.97 24.18 1.14 23.74 0.55C23.31 -0.05 22.48 -0.18 21.88 0.25C21.87 0.26 21.86 0.27 21.85 0.28C21.19 0.77 17.91 3.22 12 7.64C6.09 3.22 2.81 0.77 2.15 0.28C1.57 -0.17 0.73 -0.06 0.28 0.52C-0.17 1.1 -0.06 1.93 0.52 2.38C0.53 2.39 0.54 2.4 0.55 2.4C1.61 3.2 10.13 9.57 11.2 10.37C11.42 10.53 11.67 10.62 11.94 10.63C12.25 10.64 12.55 10.55 12.8 10.37Z" id="a2pgiST2Y"></path><path d="M12.8 23.73C13.87 22.94 22.39 16.57 23.45 15.77C24.05 15.34 24.18 14.51 23.74 13.91C23.31 13.32 22.48 13.19 21.88 13.62C21.87 13.63 21.86 13.64 21.85 13.65C21.19 14.14 17.91 16.59 12 21.01C6.09 16.59 2.81 14.14 2.15 13.65C1.57 13.2 0.73 13.3 0.28 13.89C-0.17 14.47 -0.06 15.3 0.52 15.75C0.53 15.76 0.54 15.76 0.55 15.77C1.61 16.57 10.13 22.94 11.2 23.73C11.42 23.9 11.67 23.99 11.94 24C12.25 24.01 12.55 23.92 12.8 23.73Z" id="baoSXXC41f"></path><path d="M12.8 17.09C13.87 16.29 22.39 9.92 23.45 9.13C24.05 8.69 24.18 7.86 23.74 7.27C23.31 6.68 22.48 6.55 21.88 6.98C21.87 6.99 21.86 6.99 21.85 7C21.19 7.49 17.91 9.95 12 14.37C6.09 9.95 2.81 7.49 2.15 7C1.57 6.55 0.73 6.66 0.28 7.24C-0.17 7.82 -0.06 8.66 0.52 9.1C0.53 9.11 0.54 9.12 0.55 9.13C1.61 9.92 10.13 16.29 11.2 17.09C11.42 17.25 11.67 17.34 11.94 17.35C12.25 17.37 12.55 17.27 12.8 17.09Z" id="dJE6cQLvx"></path></defs><g><g><g><g><use xlink:href="#a2pgiST2Y" opacity="1" fill="#00000a" fill-opacity="1"></use><g><use xlink:href="#a2pgiST2Y" opacity="1" fill-opacity="0" stroke="#000000" stroke-width="10" stroke-opacity="0"></use></g></g><g><use xlink:href="#baoSXXC41f" opacity="1" fill="#00000a" fill-opacity="1"></use><g><use xlink:href="#baoSXXC41f" opacity="1" fill-opacity="0" stroke="#000000" stroke-width="10" stroke-opacity="0"></use></g></g><g><use xlink:href="#dJE6cQLvx" opacity="1" fill="#00000a" fill-opacity="1"></use><g><use xlink:href="#dJE6cQLvx" opacity="1" fill-opacity="0" stroke="#000000" stroke-width="10" stroke-opacity="0"></use></g></g></g></g></g></svg>